# xmcd
#
# Track frame offsets: 
#        150
#        10540
#        20885
#        28080
#        43212
#        60207
#        69880
#        83992
#        98385
#        112570
#        122515
#        136670
#
# Disc length: 2191 seconds
#
# Revision: 2
# Processed by: cddbd v1.4PL0 Copyright (c) Steve Scherf et al.
# Submitted via: ExactAudioCopy v0.95a3
#
DISCID=81088d0c
DTITLE=The Junkyard Dogs - Good Livin' Platter
DYEAR=1993
DGENRE=
TTITLE0=Good Livin'
TTITLE1=View From Here
TTITLE2=Drug Store
TTITLE3=Breakin' The Law
TTITLE4=Unwanted Man
TTITLE5=Ambition
TTITLE6=Born To Cry
TTITLE7=Gates Of Steel
TTITLE8=Lightning Bar Blues
TTITLE9=Evil Runs Free
TTITLE10=I Wanna Be Your Boyfriend
TTITLE11=Mudhead
EXTD=
EXTT0=
EXTT1=
EXTT2=
EXTT3=
EXTT4=
EXTT5=
EXTT6=
EXTT7=
EXTT8=
EXTT9=
EXTT10=
EXTT11=
PLAYORDER=
